<?xml version="1.0" standalone="no"?>
<!DOCTYPE svg PUBLIC "-//W3C//DTD SVG 20010904//EN"
 "http://www.w3.org/TR/2001/REC-SVG-20010904/DTD/svg10.dtd">
<svg version="1.0" xmlns="http://www.w3.org/2000/svg"
 width="500.000000pt" height="500.000000pt" viewBox="0 0 500.000000 500.000000"
 preserveAspectRatio="xMidYMid meet">

<g transform="translate(0.000000,500.000000) scale(0.100000,-0.100000)"
fill="#000000" stroke="none">
<path d="M1890 3219 c-233 -38 -417 -202 -475 -425 -8 -32 -15 -97 -15 -144 0
-163 49 -280 170 -401 89 -89 167 -132 287 -156 59 -11 98 -13 149 -7 l69 8
-83 7 c-111 9 -193 49 -281 138 -74 75 -122 150 -159 249 -34 90 -43 284 -17
381 38 148 116 249 233 304 60 28 77 32 157 32 80 0 97 -3 158 -32 79 -38 162
-113 217 -197 l40 -61 0 82 0 81 -42 38 c-56 48 -150 91 -229 104 -73 11 -102
11 -179 -1z"/>
<path d="M2510 2843 c0 -408 6 -465 54 -548 38 -64 105 -123 185 -163 66 -33
83 -37 170 -40 204 -8 341 68 418 234 l28 59 3 418 3 417 -55 0 c-31 0 -56 -2
-56 -4 0 -2 11 -28 24 -57 34 -75 54 -182 67 -361 16 -215 8 -387 -20 -460
-57 -147 -233 -254 -384 -234 -116 16 -213 92 -270 214 l-32 67 -3 418 -3 417
-65 0 -64 0 0 -377z"/>
<path d="M3490 2655 l0 -565 60 0 60 0 0 565 0 565 -60 0 -60 0 0 -565z"/>
<path d="M2388 2425 c-11 -59 -61 -157 -104 -205 -42 -46 -103 -85 -167 -106
-38 -13 -38 -14 -8 -9 59 9 178 73 236 128 l56 52 -3 90 c-2 74 -4 83 -10 50z"/>
<path d="M2046 1782 c-22 -53 -46 -112 -53 -129 -12 -29 -11 -33 2 -33 9 0 21
14 26 30 10 28 14 30 66 30 52 0 55 -2 66 -30 10 -27 37 -43 37 -21 0 11 -91
233 -99 243 -3 4 -24 -37 -45 -90z m67 -29 l17 -43 -41 0 c-29 0 -40 4 -36 13
2 6 10 29 18 49 15 43 19 41 42 -19z"/>
<path d="M1384 1851 c-44 -27 -64 -59 -64 -104 0 -80 46 -127 123 -127 40 0
53 5 78 29 29 29 37 51 20 51 -5 0 -15 -7 -22 -17 -8 -9 -29 -22 -46 -30 -28
-11 -38 -11 -67 1 -64 27 -78 106 -27 157 37 37 79 38 119 4 37 -31 57 -34 42
-4 -15 27 -69 59 -100 59 -14 0 -39 -9 -56 -19z"/>
<path d="M1726 1863 c-3 -3 -6 -60 -6 -125 l0 -118 61 0 c44 0 60 3 57 13 -3
6 -23 13 -46 15 l-42 3 0 104 c0 95 -7 125 -24 108z"/>
<path d="M2392 1860 c-12 -5 -27 -21 -34 -35 -19 -41 2 -70 64 -90 63 -21 78
-31 78 -56 0 -39 -76 -53 -110 -19 -23 23 -40 26 -40 6 0 -57 147 -67 172 -11
20 45 4 71 -63 97 -34 13 -67 31 -72 40 -25 39 55 67 94 32 27 -24 45 -13 22
14 -20 26 -76 37 -111 22z"/>
<path d="M2732 1860 c-12 -5 -27 -21 -34 -35 -19 -41 2 -70 64 -90 63 -21 78
-31 78 -56 0 -39 -76 -53 -110 -19 -23 23 -40 26 -40 6 0 -57 147 -67 172 -11
20 45 4 71 -63 97 -34 13 -67 31 -72 40 -25 39 55 67 94 32 27 -24 45 -13 22
14 -20 26 -76 37 -111 22z"/>
<path d="M3020 1862 c0 -4 20 -36 45 -70 40 -55 45 -67 45 -117 0 -42 3 -55
15 -55 12 0 15 13 15 61 0 55 4 66 40 116 22 31 40 60 40 65 0 20 -23 4 -57
-42 -20 -27 -40 -50 -44 -50 -4 0 -17 16 -29 35 -12 20 -29 42 -37 50 -16 16
-33 20 -33 7z"/>
<path d="M3384 1856 c-3 -9 -4 -57 -3 -107 4 -81 7 -93 28 -110 31 -25 101
-25 132 0 22 18 24 26 24 118 0 128 -18 135 -25 9 -3 -56 -10 -100 -17 -108
-7 -6 -29 -12 -49 -12 -53 0 -64 21 -64 125 0 82 -12 121 -26 85z"/>
<path d="M3750 1745 c0 -77 4 -125 10 -125 6 0 10 48 10 125 0 77 -4 125 -10
125 -6 0 -10 -48 -10 -125z"/>
</g>
</svg>
